<svg width="35" height="33" viewBox="0 0 35 33" fill="none" xmlns="http://www.w3.org/2000/svg">
<path d="M23.373 6.85449L3.45917 6.89533C1.55167 6.89533 0 8.44699 0 10.3545V22.6867C0 24.5942 1.55167 26.1453 3.45917 26.1453H7V31.9787C7 32.2196 7.14817 32.436 7.37333 32.5229C7.44158 32.5492 7.51275 32.562 7.58333 32.562C7.74433 32.562 7.90242 32.4949 8.015 32.3712L13.6757 26.1442L23.3742 26.1045C25.2817 26.1045 26.8333 24.5528 26.8333 22.6459V10.3137C26.8333 8.40616 25.2817 6.85449 23.373 6.85449ZM5.83333 12.6878H13.4167C13.7392 12.6878 14 12.9492 14 13.2712C14 13.5932 13.7392 13.8545 13.4167 13.8545H5.83333C5.51075 13.8545 5.25 13.5932 5.25 13.2712C5.25 12.9492 5.51075 12.6878 5.83333 12.6878ZM21 20.8545H5.83333C5.51075 20.8545 5.25 20.5932 5.25 20.2712C5.25 19.9492 5.51075 19.6878 5.83333 19.6878H21C21.3226 19.6878 21.5833 19.9492 21.5833 20.2712C21.5833 20.5932 21.3226 20.8545 21 20.8545ZM21 17.3545H5.83333C5.51075 17.3545 5.25 17.0932 5.25 16.7712C5.25 16.4492 5.51075 16.1878 5.83333 16.1878H21C21.3226 16.1878 21.5833 16.4492 21.5833 16.7712C21.5833 17.0932 21.3226 17.3545 21 17.3545Z" fill="#9381FF"/>
<path d="M31.5421 0.4787L11.6259 0.437866C9.71841 0.437866 8.16675 1.98953 8.16675 3.89703V5.71937L23.3707 5.68787C25.924 5.68787 28.0001 7.76278 28.0001 10.3137V22.6045V22.646V23.8634L29.9017 25.9552C30.0143 26.0789 30.1724 26.146 30.3334 26.146C30.404 26.146 30.4752 26.1331 30.5434 26.1069C30.7686 26.02 30.9167 25.8035 30.9167 25.5626V19.7293H31.5409C33.4484 19.7293 35.0001 18.1776 35.0001 16.2707V3.93787C35.0001 2.03037 33.4484 0.4787 31.5421 0.4787Z" fill="#9381FF"/>
</svg>
