<svg width="37" height="35" viewBox="0 0 37 35" fill="none" xmlns="http://www.w3.org/2000/svg">
<path d="M20.0293 30.8693L18.5 32.3987L16.9707 30.8693L16.9382 30.8369L16.9039 30.8065C12.0687 26.5292 8.19037 23.0506 5.50631 19.785C2.83937 16.5403 1.5 13.6792 1.5 10.655C1.5 5.74841 5.26843 1.97998 10.175 1.97998C12.8717 1.97998 15.6003 3.26025 17.3549 5.33389L18.5 6.68717L19.6451 5.33389C21.3997 3.26025 24.1283 1.97998 26.825 1.97998C31.7316 1.97998 35.5 5.74841 35.5 10.655C35.5 13.6792 34.1606 16.5403 31.4937 19.785C28.8096 23.0506 24.9313 26.5292 20.0961 30.8065L20.0618 30.8369L20.0293 30.8693Z" stroke="#9381FF" stroke-width="3"/>
</svg>
